<svg version="1.1" viewBox="0.0 0.0 512.0 512.0" fill="none" stroke="none" stroke-linecap="square" stroke-miterlimit="10" xmlns:xlink="http://www.w3.org/1999/xlink" xmlns="http://www.w3.org/2000/svg"><clipPath id="p.0"><path d="m0 0l512.0 0l0 512.0l-512.0 0l0 -512.0z" clip-rule="nonzero"/></clipPath><g clip-path="url(#p.0)"><path fill="#d9d2e9" d="m0 0l512.0 0l0 512.0l-512.0 0z" fill-rule="evenodd"/><path fill="#000000" fill-opacity="0.0" d="m0 135.00787l512.0 0l0 241.98425l-512.0 0z" fill-rule="evenodd"/><path fill="#d9d2e9" d="m74.13434 334.8781q-20.0 -0.40625 -31.71875 -13.109375q-11.71875 -12.71875 -12.75 -35.328125q-0.421875 -7.8125 0.625 -15.828125l3.84375 -25.203125q3.03125 -20.203125 11.78125 -35.828125q8.75 -15.625 21.765625 -23.234375q13.015625 -7.609375 29.375 -7.296875q20.203125 0.421875 31.703125 13.8125q11.515625 13.375 12.359375 36.609375q0.203125 8.75 -0.9375 16.5625l-3.4375 23.21875q-4.6875 31.25 -21.09375 48.703125q-16.40625 17.453125 -41.515625 16.921875zm36.15625 -89.890625q1.25 -10.734375 1.25 -16.5625q-0.53125 -23.21875 -16.78125 -23.84375q-12.5 -0.53125 -20.15625 9.421875q-7.65625 9.953125 -10.671875 31.1875l-3.640625 25.53125q-1.25 10.3125 -0.9375 16.140625q0.515625 21.875 17.1875 22.609375q11.875 0.40625 19.46875 -8.75q7.609375 -9.171875 10.625 -30.0l3.65625 -25.734375z" fill-rule="nonzero"/><path fill="#674ea7" d="m173.1469 313.7375l39.140625 0l-3.359375 19.0625l-61.484375 0l19.6875 -113.75l22.421875 0l-16.40625 94.6875zm72.734375 19.0625l-22.421875 0l19.765625 -113.75l22.42189 0l-19.76564 113.75zm60.781265 -31.484375l31.40625 -82.265625l25.546875 0l-49.609375 113.75l-23.359375 0l-13.828125 -113.75l24.296875 0l5.546875 82.265625zm72.421875 31.484375l-22.421875 0l19.765625 -113.75l22.421875 0l-19.765625 113.75zm76.328125 -23.28125l-30.234375 0l-9.921875 23.28125l-24.375 0l54.21875 -113.75l20.546875 0l14.921875 113.75l-23.203125 0l-1.953125 -23.28125zm-22.03125 -19.140625l20.46875 0l-3.203125 -40.3125l-17.265625 40.3125z" fill-rule="nonzero"/><path fill="#6d9eeb" d="m8.0 256.86615l0 0c0 -38.94696 30.881775 -70.5197 68.97638 -70.5197l0 0c18.29367 0 35.83808 7.4297333 48.773666 20.65474c12.935577 13.225006 20.202713 31.161972 20.202713 49.86496l0 0c0 38.94693 -30.881783 70.519684 -68.97638 70.519684l0 0c-38.094604 0 -68.97638 -31.572754 -68.97638 -70.519684z" fill-rule="evenodd"/><path stroke="#d9d2e9" stroke-width="1.0" stroke-linejoin="round" stroke-linecap="butt" d="m8.0 256.86615l0 0c0 -38.94696 30.881775 -70.5197 68.97638 -70.5197l0 0c18.29367 0 35.83808 7.4297333 48.773666 20.65474c12.935577 13.225006 20.202713 31.161972 20.202713 49.86496l0 0c0 38.94693 -30.881783 70.519684 -68.97638 70.519684l0 0c-38.094604 0 -68.97638 -31.572754 -68.97638 -70.519684z" fill-rule="evenodd"/><path fill="#000000" fill-opacity="0.0" d="m76.97638 186.34645l313.03937 -9.763779" fill-rule="evenodd"/><path stroke="#000000" stroke-width="16.0" stroke-linejoin="round" stroke-linecap="butt" stroke-dasharray="64.0,48.0" d="m76.97638 186.34645l313.03937 -9.763779" fill-rule="evenodd"/><path fill="#000000" fill-opacity="0.0" d="m390.01312 201.1181l-288.22046 122.04724" fill-rule="evenodd"/><path stroke="#000000" stroke-width="16.0" stroke-linejoin="round" stroke-linecap="butt" stroke-dasharray="64.0,48.0" d="m390.01312 201.1181l-288.22046 122.04724" fill-rule="evenodd"/><path fill="#674ea7" d="m377.7139 188.85039l0 0c0 -6.7752686 5.5065613 -12.267715 12.299225 -12.267715l0 0c3.261963 0 6.39032 1.2924957 8.696869 3.5931396c2.306549 2.300644 3.602356 5.4209747 3.602356 8.674576l0 0c0 6.775284 -5.5065613 12.267715 -12.299225 12.267715l0 0c-6.7926636 0 -12.299225 -5.4924316 -12.299225 -12.267715z" fill-rule="evenodd"/><path fill="#38761d" d="m64.997375 253.22572l22.073257 67.464554l33.737762 -67.464554z" fill-rule="evenodd"/><path fill="#38761d" d="m49.070866 201.13124l20.21754 51.496063l35.593483 -51.496063z" fill-rule="evenodd"/></g></svg>